<mxfile host="app.diagrams.net" modified="2023-04-29T11:22:33.811Z" agent="Mozilla/5.0 (Windows NT 10.0; Win64; x64) AppleWebKit/537.36 (KHTML, like Gecko) Chrome/111.0.0.0 Safari/537.36 OPR/97.0.0.0" etag="Iy8uhD80BR-MaQ38pyo_" version="21.2.1" type="device">
  <diagram name="Página-1" id="BOac0KCUuHK02oAb-1G4">
    <mxGraphModel dx="869" dy="533" grid="1" gridSize="10" guides="1" tooltips="1" connect="1" arrows="1" fold="1" page="1" pageScale="1" pageWidth="827" pageHeight="1169" math="0" shadow="0">
      <root>
        <mxCell id="0" />
        <mxCell id="1" parent="0" />
        <mxCell id="IWBIa9kebdmR_ptSJBhN-12" style="edgeStyle=orthogonalEdgeStyle;rounded=0;orthogonalLoop=1;jettySize=auto;html=1;exitX=1;exitY=0.75;exitDx=0;exitDy=0;entryX=0;entryY=0.75;entryDx=0;entryDy=0;" edge="1" parent="1" source="IWBIa9kebdmR_ptSJBhN-1" target="IWBIa9kebdmR_ptSJBhN-4">
          <mxGeometry relative="1" as="geometry" />
        </mxCell>
        <mxCell id="IWBIa9kebdmR_ptSJBhN-13" value="IMPLEMENTACIÓN &lt;br&gt;TAREA" style="edgeLabel;html=1;align=center;verticalAlign=middle;resizable=0;points=[];fillColor=#FFCC99;" vertex="1" connectable="0" parent="IWBIa9kebdmR_ptSJBhN-12">
          <mxGeometry x="0.1096" y="-2" relative="1" as="geometry">
            <mxPoint y="18" as="offset" />
          </mxGeometry>
        </mxCell>
        <mxCell id="IWBIa9kebdmR_ptSJBhN-1" value="CLIENTE" style="whiteSpace=wrap;html=1;aspect=fixed;" vertex="1" parent="1">
          <mxGeometry x="200" y="160" width="80" height="80" as="geometry" />
        </mxCell>
        <mxCell id="IWBIa9kebdmR_ptSJBhN-3" style="edgeStyle=orthogonalEdgeStyle;rounded=0;orthogonalLoop=1;jettySize=auto;html=1;exitX=0.5;exitY=0;exitDx=0;exitDy=0;entryX=0.5;entryY=1;entryDx=0;entryDy=0;" edge="1" parent="1" source="IWBIa9kebdmR_ptSJBhN-2" target="IWBIa9kebdmR_ptSJBhN-1">
          <mxGeometry relative="1" as="geometry" />
        </mxCell>
        <mxCell id="IWBIa9kebdmR_ptSJBhN-2" value="IMPLENTACIÓN&lt;br&gt;TAREA&lt;br&gt;(implements TAREAS, SERIALIZABLE)" style="whiteSpace=wrap;html=1;aspect=fixed;fillColor=#FFCC99;" vertex="1" parent="1">
          <mxGeometry x="190" y="285" width="100" height="100" as="geometry" />
        </mxCell>
        <mxCell id="IWBIa9kebdmR_ptSJBhN-11" style="edgeStyle=orthogonalEdgeStyle;rounded=0;orthogonalLoop=1;jettySize=auto;html=1;exitX=0;exitY=0.25;exitDx=0;exitDy=0;entryX=1;entryY=0.25;entryDx=0;entryDy=0;" edge="1" parent="1" source="IWBIa9kebdmR_ptSJBhN-4" target="IWBIa9kebdmR_ptSJBhN-1">
          <mxGeometry relative="1" as="geometry" />
        </mxCell>
        <mxCell id="IWBIa9kebdmR_ptSJBhN-14" value="RESPUESTA" style="edgeLabel;html=1;align=center;verticalAlign=middle;resizable=0;points=[];" vertex="1" connectable="0" parent="IWBIa9kebdmR_ptSJBhN-11">
          <mxGeometry x="-0.1467" y="-4" relative="1" as="geometry">
            <mxPoint x="-5" y="-6" as="offset" />
          </mxGeometry>
        </mxCell>
        <mxCell id="IWBIa9kebdmR_ptSJBhN-4" value="SERVIDOR&lt;br&gt;(implements&lt;br&gt;COMPUTE)" style="whiteSpace=wrap;html=1;aspect=fixed;" vertex="1" parent="1">
          <mxGeometry x="480" y="160" width="80" height="80" as="geometry" />
        </mxCell>
        <mxCell id="IWBIa9kebdmR_ptSJBhN-5" value="REALIZA LA TAREA&lt;br&gt;(usa la funcion ejecutar(), para obtener la respuesta)" style="ellipse;whiteSpace=wrap;html=1;" vertex="1" parent="1">
          <mxGeometry x="420" y="315" width="200" height="70" as="geometry" />
        </mxCell>
        <mxCell id="IWBIa9kebdmR_ptSJBhN-7" value="TAREAS&lt;br&gt;(INTERFAZ)" style="rounded=1;whiteSpace=wrap;html=1;fillColor=#9999FF;" vertex="1" parent="1">
          <mxGeometry x="280" y="80" width="80" height="40" as="geometry" />
        </mxCell>
        <mxCell id="IWBIa9kebdmR_ptSJBhN-8" value="COMPUTE (INTERFAZ)" style="rounded=1;whiteSpace=wrap;html=1;fillColor=#9999FF;" vertex="1" parent="1">
          <mxGeometry x="400" y="80" width="80" height="40" as="geometry" />
        </mxCell>
        <mxCell id="IWBIa9kebdmR_ptSJBhN-17" value="" style="endArrow=classic;startArrow=classic;html=1;rounded=0;exitX=0.5;exitY=0;exitDx=0;exitDy=0;entryX=0.5;entryY=1;entryDx=0;entryDy=0;" edge="1" parent="1" source="IWBIa9kebdmR_ptSJBhN-5" target="IWBIa9kebdmR_ptSJBhN-4">
          <mxGeometry width="50" height="50" relative="1" as="geometry">
            <mxPoint x="290" y="250" as="sourcePoint" />
            <mxPoint x="340" y="200" as="targetPoint" />
          </mxGeometry>
        </mxCell>
      </root>
    </mxGraphModel>
  </diagram>
</mxfile>
